<svg width="548" height="484" viewBox="0 0 548 484" fill="none" xmlns="http://www.w3.org/2000/svg">
<path fill-rule="evenodd" clip-rule="evenodd" d="M270.128 0.581999C322.895 8.54897 317.078 83.2769 361.811 107.915C402.183 130.15 466.101 101.81 502.377 128.499C537.889 154.624 558.137 203.207 541.617 240.197C523.983 279.683 441.503 274.168 420.249 312.396C395.416 357.064 456.542 418.37 420.775 457.554C389.49 491.828 320.574 486.238 270.128 476.86C222.9 468.079 183.357 439.895 153.873 407.933C129.224 381.213 140.328 341.511 118.903 312.927C96.2824 282.751 45.5773 272.672 28.1384 240.197C7.53117 201.822 -14.14 151.942 13.5946 116.82C41.7684 81.1413 111.979 97.399 157.014 76.9932C200.397 57.3359 221.534 -6.75496 270.128 0.581999Z" fill="url(#paint0_linear_437_21)"/>
<defs>
<linearGradient id="paint0_linear_437_21" x1="60.8021" y1="82.7223" x2="519.413" y2="147.463" gradientUnits="userSpaceOnUse">
<stop stop-color="#FC2D80"/>
<stop offset="1" stop-color="#021750"/>
</linearGradient>
</defs>
</svg>
