<svg width="37" height="38" viewBox="0 0 37 38" fill="none" xmlns="http://www.w3.org/2000/svg">
<path d="M17.7845 27.2489C17.7235 27.2489 17.6631 27.2368 17.6072 27.2134C17.5513 27.19 17.5011 27.1558 17.4597 27.113L8.70259 18.0522C8.64422 17.9917 8.60552 17.9164 8.59123 17.8353C8.57694 17.7541 8.58769 17.6708 8.62215 17.5954C8.65662 17.5201 8.7133 17.4559 8.78527 17.4109C8.85725 17.3659 8.94138 17.3419 9.02738 17.3419H13.2426C13.3059 17.3419 13.3684 17.3549 13.426 17.38C13.4836 17.4051 13.5349 17.4417 13.5764 17.4874L16.5031 20.708C16.8194 20.0613 17.4317 18.9845 18.5061 17.6724C20.0945 15.7326 23.0491 12.8797 28.1039 10.3043C28.2016 10.2546 28.3153 10.2417 28.4225 10.2681C28.5296 10.2946 28.6225 10.3586 28.6828 10.4474C28.7431 10.5362 28.7664 10.6434 28.748 10.7478C28.7297 10.8522 28.6711 10.9463 28.5838 11.0114C28.5646 11.0258 26.6156 12.4939 24.3725 15.1829C22.3082 17.6575 19.564 21.7038 18.2137 26.9275C18.19 27.0193 18.1348 27.1009 18.057 27.1591C17.9792 27.2174 17.8832 27.2491 17.7844 27.2491L17.7845 27.2489Z" fill="white"/>
<circle cx="18.6696" cy="18.7518" r="17.7862" stroke="white"/>
</svg>
