<svg width="153" height="28" viewBox="0 0 153 28" fill="none" xmlns="http://www.w3.org/2000/svg">
<circle cx="13.1007" cy="14" r="12.6007" stroke="url(#paint0_linear_117_112)"/>
<path d="M42.4994 8.77V18.5H40.9034V11.836L37.9354 18.5H36.8294L33.8474 11.836V18.5H32.2514V8.77H33.9734L37.3894 16.4L40.7914 8.77H42.4994ZM47.9431 18.626C47.2151 18.626 46.5571 18.4627 45.9691 18.136C45.3811 17.8 44.9191 17.3333 44.5831 16.736C44.2471 16.1293 44.0791 15.4293 44.0791 14.636C44.0791 13.852 44.2518 13.1567 44.5971 12.55C44.9425 11.9433 45.4138 11.4767 46.0111 11.15C46.6085 10.8233 47.2758 10.66 48.0131 10.66C48.7505 10.66 49.4178 10.8233 50.0151 11.15C50.6125 11.4767 51.0838 11.9433 51.4291 12.55C51.7745 13.1567 51.9471 13.852 51.9471 14.636C51.9471 15.42 51.7698 16.1153 51.4151 16.722C51.0605 17.3287 50.5751 17.8 49.9591 18.136C49.3525 18.4627 48.6805 18.626 47.9431 18.626ZM47.9431 17.24C48.3538 17.24 48.7365 17.142 49.0911 16.946C49.4551 16.75 49.7491 16.456 49.9731 16.064C50.1971 15.672 50.3091 15.196 50.3091 14.636C50.3091 14.076 50.2018 13.6047 49.9871 13.222C49.7725 12.83 49.4878 12.536 49.1331 12.34C48.7785 12.144 48.3958 12.046 47.9851 12.046C47.5745 12.046 47.1918 12.144 46.8371 12.34C46.4918 12.536 46.2165 12.83 46.0111 13.222C45.8058 13.6047 45.7031 14.076 45.7031 14.636C45.7031 15.4667 45.9131 16.1107 46.3331 16.568C46.7625 17.016 47.2991 17.24 47.9431 17.24ZM57.5149 10.66C58.1029 10.66 58.6255 10.786 59.0829 11.038C59.5495 11.29 59.9135 11.6633 60.1749 12.158C60.4455 12.6527 60.5809 13.25 60.5809 13.95V18.5H58.9989V14.188C58.9989 13.4973 58.8262 12.97 58.4809 12.606C58.1355 12.2327 57.6642 12.046 57.0669 12.046C56.4695 12.046 55.9935 12.2327 55.6389 12.606C55.2935 12.97 55.1209 13.4973 55.1209 14.188V18.5H53.5249V8.14H55.1209V11.682C55.3915 11.3553 55.7322 11.1033 56.1429 10.926C56.5629 10.7487 57.0202 10.66 57.5149 10.66ZM62.0847 14.608C62.0847 13.8333 62.2433 13.1473 62.5607 12.55C62.8873 11.9527 63.326 11.4907 63.8767 11.164C64.4367 10.828 65.0527 10.66 65.7247 10.66C66.3313 10.66 66.8587 10.7813 67.3067 11.024C67.764 11.2573 68.128 11.5513 68.3987 11.906V10.786H70.0087V18.5H68.3987V17.352C68.128 17.716 67.7593 18.0193 67.2927 18.262C66.826 18.5047 66.294 18.626 65.6967 18.626C65.034 18.626 64.4273 18.458 63.8767 18.122C63.326 17.7767 62.8873 17.3007 62.5607 16.694C62.2433 16.078 62.0847 15.3827 62.0847 14.608ZM68.3987 14.636C68.3987 14.104 68.2867 13.642 68.0627 13.25C67.848 12.858 67.5633 12.5593 67.2087 12.354C66.854 12.1487 66.4713 12.046 66.0607 12.046C65.65 12.046 65.2673 12.1487 64.9127 12.354C64.558 12.55 64.2687 12.844 64.0447 13.236C63.83 13.6187 63.7227 14.076 63.7227 14.608C63.7227 15.14 63.83 15.6067 64.0447 16.008C64.2687 16.4093 64.558 16.7173 64.9127 16.932C65.2767 17.1373 65.6593 17.24 66.0607 17.24C66.4713 17.24 66.854 17.1373 67.2087 16.932C67.5633 16.7267 67.848 16.428 68.0627 16.036C68.2867 15.6347 68.3987 15.168 68.3987 14.636ZM81.4429 10.66C82.0496 10.66 82.5909 10.786 83.0669 11.038C83.5523 11.29 83.9303 11.6633 84.2009 12.158C84.4809 12.6527 84.6209 13.25 84.6209 13.95V18.5H83.0389V14.188C83.0389 13.4973 82.8663 12.97 82.5209 12.606C82.1756 12.2327 81.7043 12.046 81.1069 12.046C80.5096 12.046 80.0336 12.2327 79.6789 12.606C79.3336 12.97 79.1609 13.4973 79.1609 14.188V18.5H77.5789V14.188C77.5789 13.4973 77.4063 12.97 77.0609 12.606C76.7156 12.2327 76.2443 12.046 75.6469 12.046C75.0496 12.046 74.5736 12.2327 74.2189 12.606C73.8736 12.97 73.7009 13.4973 73.7009 14.188V18.5H72.1049V10.786H73.7009V11.668C73.9623 11.3507 74.2936 11.1033 74.6949 10.926C75.0963 10.7487 75.5256 10.66 75.9829 10.66C76.5989 10.66 77.1496 10.7907 77.6349 11.052C78.1203 11.3133 78.4936 11.6913 78.7549 12.186C78.9883 11.7193 79.3523 11.3507 79.8469 11.08C80.3416 10.8 80.8736 10.66 81.4429 10.66ZM86.1198 14.608C86.1198 13.8333 86.2785 13.1473 86.5958 12.55C86.9225 11.9527 87.3611 11.4907 87.9118 11.164C88.4718 10.828 89.0878 10.66 89.7598 10.66C90.3665 10.66 90.8938 10.7813 91.3418 11.024C91.7991 11.2573 92.1631 11.5513 92.4338 11.906V10.786H94.0438V18.5H92.4338V17.352C92.1631 17.716 91.7945 18.0193 91.3278 18.262C90.8611 18.5047 90.3291 18.626 89.7318 18.626C89.0691 18.626 88.4625 18.458 87.9118 18.122C87.3611 17.7767 86.9225 17.3007 86.5958 16.694C86.2785 16.078 86.1198 15.3827 86.1198 14.608ZM92.4338 14.636C92.4338 14.104 92.3218 13.642 92.0978 13.25C91.8831 12.858 91.5985 12.5593 91.2438 12.354C90.8891 12.1487 90.5065 12.046 90.0958 12.046C89.6851 12.046 89.3025 12.1487 88.9478 12.354C88.5931 12.55 88.3038 12.844 88.0798 13.236C87.8651 13.6187 87.7578 14.076 87.7578 14.608C87.7578 15.14 87.8651 15.6067 88.0798 16.008C88.3038 16.4093 88.5931 16.7173 88.9478 16.932C89.3118 17.1373 89.6945 17.24 90.0958 17.24C90.5065 17.24 90.8891 17.1373 91.2438 16.932C91.5985 16.7267 91.8831 16.428 92.0978 16.036C92.3218 15.6347 92.4338 15.168 92.4338 14.636ZM95.6081 14.608C95.6081 13.8333 95.7668 13.1473 96.0841 12.55C96.4108 11.9527 96.8494 11.4907 97.4001 11.164C97.9601 10.828 98.5808 10.66 99.2621 10.66C99.7661 10.66 100.261 10.772 100.746 10.996C101.241 11.2107 101.633 11.5 101.922 11.864V8.14H103.532V18.5H101.922V17.338C101.661 17.7113 101.297 18.0193 100.83 18.262C100.373 18.5047 99.8454 18.626 99.2481 18.626C98.5761 18.626 97.9601 18.458 97.4001 18.122C96.8494 17.7767 96.4108 17.3007 96.0841 16.694C95.7668 16.078 95.6081 15.3827 95.6081 14.608ZM101.922 14.636C101.922 14.104 101.81 13.642 101.586 13.25C101.371 12.858 101.087 12.5593 100.732 12.354C100.377 12.1487 99.9948 12.046 99.5841 12.046C99.1734 12.046 98.7908 12.1487 98.4361 12.354C98.0814 12.55 97.7921 12.844 97.5681 13.236C97.3534 13.6187 97.2461 14.076 97.2461 14.608C97.2461 15.14 97.3534 15.6067 97.5681 16.008C97.7921 16.4093 98.0814 16.7173 98.4361 16.932C98.8001 17.1373 99.1828 17.24 99.5841 17.24C99.9948 17.24 100.377 17.1373 100.732 16.932C101.087 16.7267 101.371 16.428 101.586 16.036C101.81 15.6347 101.922 15.168 101.922 14.636ZM117.035 8.77V18.5H115.439V14.244H110.861V18.5H109.265V8.77H110.861V12.942H115.439V8.77H117.035ZM118.604 14.608C118.604 13.8333 118.763 13.1473 119.08 12.55C119.407 11.9527 119.846 11.4907 120.396 11.164C120.956 10.828 121.572 10.66 122.244 10.66C122.851 10.66 123.378 10.7813 123.826 11.024C124.284 11.2573 124.648 11.5513 124.918 11.906V10.786H126.528V18.5H124.918V17.352C124.648 17.716 124.279 18.0193 123.812 18.262C123.346 18.5047 122.814 18.626 122.216 18.626C121.554 18.626 120.947 18.458 120.396 18.122C119.846 17.7767 119.407 17.3007 119.08 16.694C118.763 16.078 118.604 15.3827 118.604 14.608ZM124.918 14.636C124.918 14.104 124.806 13.642 124.582 13.25C124.368 12.858 124.083 12.5593 123.728 12.354C123.374 12.1487 122.991 12.046 122.58 12.046C122.17 12.046 121.787 12.1487 121.432 12.354C121.078 12.55 120.788 12.844 120.564 13.236C120.35 13.6187 120.242 14.076 120.242 14.608C120.242 15.14 120.35 15.6067 120.564 16.008C120.788 16.4093 121.078 16.7173 121.432 16.932C121.796 17.1373 122.179 17.24 122.58 17.24C122.991 17.24 123.374 17.1373 123.728 16.932C124.083 16.7267 124.368 16.428 124.582 16.036C124.806 15.6347 124.918 15.168 124.918 14.636ZM138.984 10.786L136.59 18.5H134.91L133.356 12.802L131.802 18.5H130.122L127.714 10.786H129.338L130.948 16.988L132.586 10.786H134.252L135.82 16.96L137.416 10.786H138.984ZM139.645 14.608C139.645 13.8333 139.804 13.1473 140.121 12.55C140.448 11.9527 140.887 11.4907 141.437 11.164C141.997 10.828 142.613 10.66 143.285 10.66C143.892 10.66 144.419 10.7813 144.867 11.024C145.325 11.2573 145.689 11.5513 145.959 11.906V10.786H147.569V18.5H145.959V17.352C145.689 17.716 145.32 18.0193 144.853 18.262C144.387 18.5047 143.855 18.626 143.257 18.626C142.595 18.626 141.988 18.458 141.437 18.122C140.887 17.7767 140.448 17.3007 140.121 16.694C139.804 16.078 139.645 15.3827 139.645 14.608ZM145.959 14.636C145.959 14.104 145.847 13.642 145.623 13.25C145.409 12.858 145.124 12.5593 144.769 12.354C144.415 12.1487 144.032 12.046 143.621 12.046C143.211 12.046 142.828 12.1487 142.473 12.354C142.119 12.55 141.829 12.844 141.605 13.236C141.391 13.6187 141.283 14.076 141.283 14.608C141.283 15.14 141.391 15.6067 141.605 16.008C141.829 16.4093 142.119 16.7173 142.473 16.932C142.837 17.1373 143.22 17.24 143.621 17.24C144.032 17.24 144.415 17.1373 144.769 16.932C145.124 16.7267 145.409 16.428 145.623 16.036C145.847 15.6347 145.959 15.168 145.959 14.636Z" fill="white"/>
<path d="M150.309 18.598C150.02 18.598 149.777 18.5 149.581 18.304C149.385 18.108 149.287 17.8653 149.287 17.576C149.287 17.2867 149.385 17.044 149.581 16.848C149.777 16.652 150.02 16.554 150.309 16.554C150.589 16.554 150.827 16.652 151.023 16.848C151.219 17.044 151.317 17.2867 151.317 17.576C151.317 17.8653 151.219 18.108 151.023 18.304C150.827 18.5 150.589 18.598 150.309 18.598Z" fill="#FC2D80"/>
<defs>
<linearGradient id="paint0_linear_117_112" x1="2.38323" y1="8.04906" x2="22.9231" y2="21.0547" gradientUnits="userSpaceOnUse">
<stop offset="0.284913" stop-color="#FC2D80"/>
<stop offset="1" stop-color="#041750"/>
</linearGradient>
</defs>
</svg>
