<svg width="58" height="58" viewBox="0 0 58 58" fill="none" xmlns="http://www.w3.org/2000/svg">
<rect width="58" height="58" rx="10.4722" fill="#292929"/>
<path d="M40.781 11.4791H17.2185C13.7149 11.4791 10.8748 14.3193 10.8748 17.8229V40.177C10.8748 43.6806 13.7149 46.5208 17.2185 46.5208H40.781C44.2846 46.5208 47.1248 43.6806 47.1248 40.177V17.8229C47.1248 14.3193 44.2846 11.4791 40.781 11.4791Z" fill="#330000"/>
<path d="M29.1195 33.2292H23.7138L22.3181 37.259C22.302 37.3919 22.2179 37.4583 22.0659 37.4583H19.5284C19.3592 37.4583 19.3003 37.3753 19.3517 37.2091L24.2484 22.6653C24.3867 22.2225 24.455 21.7608 24.4508 21.2969C24.4481 21.2764 24.4501 21.2556 24.4568 21.236C24.4634 21.2164 24.4744 21.1986 24.489 21.184C24.5036 21.1694 24.5214 21.1584 24.541 21.1517C24.5606 21.1451 24.5814 21.1431 24.6019 21.1458H28.1544C28.2571 21.1458 28.316 21.1881 28.3326 21.2697L33.8124 37.2348C33.8638 37.3858 33.8215 37.4583 33.6855 37.4583H30.8444C30.7919 37.4615 30.7396 37.4488 30.6943 37.4218C30.6491 37.3949 30.613 37.355 30.5907 37.3073L29.1195 33.2292ZM24.3179 30.5104H28.529C28.4278 30.2884 26.5337 24.1772 26.3978 23.6622H26.3736L24.3179 30.5104ZM36.8408 24.1667C36.6026 24.1768 36.3648 24.1392 36.1415 24.0559C35.9181 23.9726 35.7137 23.8454 35.5403 23.6818C35.3707 23.5093 35.2387 23.3034 35.1529 23.0772C35.0671 22.851 35.0293 22.6094 35.0419 22.3678C35.0306 22.1231 35.0704 21.8787 35.1585 21.6502C35.2466 21.4216 35.3813 21.2139 35.5539 21.0401C35.7287 20.8737 35.935 20.7439 36.1607 20.6583C36.3863 20.5727 36.6268 20.5331 36.868 20.5417C37.1096 20.5291 37.3512 20.5669 37.5774 20.6527C37.8036 20.7385 38.0095 20.8704 38.182 21.0401C38.3472 21.218 38.4751 21.4271 38.5584 21.655C38.6416 21.883 38.6785 22.1253 38.6669 22.3678C38.6795 22.6094 38.6417 22.851 38.5558 23.0772C38.47 23.3034 38.3381 23.5093 38.1684 23.6818C37.9906 23.8469 37.7815 23.9749 37.5535 24.0581C37.3255 24.1414 37.0832 24.1783 36.8408 24.1667ZM35.344 37.2318V25.5774C35.3399 25.5499 35.3423 25.5218 35.3511 25.4954C35.3598 25.469 35.3746 25.445 35.3943 25.4253C35.4139 25.4056 35.4379 25.3908 35.4643 25.3821C35.4908 25.3734 35.5188 25.3709 35.5464 25.375H38.1624C38.1899 25.3713 38.2178 25.3739 38.2441 25.3828C38.2703 25.3916 38.2942 25.4064 38.3138 25.426C38.3334 25.4456 38.3482 25.4695 38.3571 25.4957C38.3659 25.522 38.3685 25.5499 38.3648 25.5774V37.2559C38.3689 37.2835 38.3664 37.3116 38.3577 37.338C38.349 37.3644 38.3342 37.3884 38.3145 37.4081C38.2948 37.4277 38.2708 37.4425 38.2444 37.4512C38.218 37.46 38.1899 37.4624 38.1624 37.4583H35.5705C35.5398 37.4626 35.5085 37.4597 35.479 37.4498C35.4496 37.4399 35.4229 37.4234 35.4009 37.4014C35.379 37.3794 35.3624 37.3527 35.3525 37.3233C35.3426 37.2938 35.3397 37.2625 35.344 37.2318Z" fill="#FF9A00"/>
</svg>
