<svg width="36" height="36" viewBox="0 0 36 36" fill="none" xmlns="http://www.w3.org/2000/svg">
<rect width="36" height="36" rx="8" fill="#292929"/>
<path d="M18 24C17.8022 24 17.6089 24.0586 17.4444 24.1685C17.28 24.2784 17.1518 24.4346 17.0761 24.6173C17.0004 24.8 16.9806 25.0011 17.0192 25.1951C17.0578 25.3891 17.153 25.5673 17.2929 25.7071C17.4327 25.847 17.6109 25.9422 17.8049 25.9808C17.9989 26.0194 18.2 25.9996 18.3827 25.9239C18.5654 25.8482 18.7216 25.72 18.8315 25.5556C18.9414 25.3911 19 25.1978 19 25C19 24.7348 18.8946 24.4804 18.7071 24.2929C18.5196 24.1054 18.2652 24 18 24ZM24 7H12C11.7348 7 11.4804 7.10536 11.2929 7.29289C11.1054 7.48043 11 7.73478 11 8V17C11 17.7956 11.3161 18.5587 11.8787 19.1213C12.4413 19.6839 13.2044 20 14 20H15V22.37C14.4908 22.9473 14.1591 23.6593 14.0445 24.4206C13.93 25.1818 14.0375 25.9599 14.3542 26.6615C14.671 27.3631 15.1834 27.9584 15.8301 28.376C16.4768 28.7936 17.2302 29.0158 18 29.0158C18.7698 29.0158 19.5232 28.7936 20.1699 28.376C20.8166 27.9584 21.329 27.3631 21.6458 26.6615C21.9625 25.9599 22.07 25.1818 21.9555 24.4206C21.8409 23.6593 21.5092 22.9473 21 22.37V20H22C22.7956 20 23.5587 19.6839 24.1213 19.1213C24.6839 18.5587 25 17.7956 25 17V8C25 7.73478 24.8946 7.48043 24.7071 7.29289C24.5196 7.10536 24.2652 7 24 7ZM18 27C17.5976 26.997 17.2055 26.8726 16.8749 26.6432C16.5443 26.4138 16.2906 26.0899 16.1469 25.7141C16.0033 25.3382 15.9764 24.9277 16.0697 24.5363C16.163 24.1448 16.3722 23.7906 16.67 23.52C16.7736 23.4265 16.8565 23.3124 16.9133 23.1849C16.9701 23.0575 16.9997 22.9195 17 22.78V20H19V22.78C19.0003 22.9195 19.0299 23.0575 19.0867 23.1849C19.1435 23.3124 19.2264 23.4265 19.33 23.52C19.6278 23.7906 19.837 24.1448 19.9303 24.5363C20.0236 24.9277 19.9967 25.3382 19.8531 25.7141C19.7094 26.0899 19.4557 26.4138 19.1251 26.6432C18.7945 26.8726 18.4024 26.997 18 27ZM23 17C23 17.2652 22.8946 17.5196 22.7071 17.7071C22.5196 17.8946 22.2652 18 22 18H14C13.7348 18 13.4804 17.8946 13.2929 17.7071C13.1054 17.5196 13 17.2652 13 17V16H23V17ZM23 14H13V9H23V14Z" fill="#90DDA9"/>
</svg>
