<svg width="58" height="58" viewBox="0 0 58 58" fill="none" xmlns="http://www.w3.org/2000/svg">
<rect width="58" height="58" rx="10.4722" fill="#292929"/>
<g clip-path="url(#clip0_142_36)">
<path d="M23.0925 46.7223C26.3534 46.7223 28.9999 44.0758 28.9999 40.8149V34.9075H23.0925C19.8316 34.9075 17.1851 37.554 17.1851 40.8149C17.1851 44.0758 19.8316 46.7223 23.0925 46.7223Z" fill="#0ACF83"/>
<path d="M17.1851 28.9999C17.1851 25.739 19.8316 23.0925 23.0925 23.0925H28.9999V34.9073H23.0925C19.8316 34.9073 17.1851 32.2608 17.1851 28.9999Z" fill="#A259FF"/>
<path d="M17.1851 17.1852C17.1851 13.9244 19.8316 11.2778 23.0925 11.2778H28.9999V23.0926H23.0925C19.8316 23.0926 17.1851 20.4461 17.1851 17.1852Z" fill="#F24E1E"/>
<path d="M29.0005 11.2778H34.9079C38.1688 11.2778 40.8153 13.9244 40.8153 17.1852C40.8153 20.4461 38.1688 23.0926 34.9079 23.0926H29.0005V11.2778Z" fill="#FF7262"/>
<path d="M40.8153 29.0002C40.8153 32.2611 38.1688 34.9076 34.9079 34.9076C31.647 34.9076 29.0005 32.2611 29.0005 29.0002C29.0005 25.7393 31.647 23.0928 34.9079 23.0928C38.1688 23.0928 40.8153 25.7393 40.8153 29.0002Z" fill="#1ABCFE"/>
</g>
<defs>
<clipPath id="clip0_142_36">
<rect width="35.4444" height="35.4444" fill="white" transform="translate(11.2778 11.2778)"/>
</clipPath>
</defs>
</svg>
