<svg width="19" height="18" viewBox="0 0 19 18" fill="none" xmlns="http://www.w3.org/2000/svg">
<path d="M14.6988 5.4074C14.6291 5.3371 14.5462 5.2813 14.4548 5.24323C14.3634 5.20515 14.2654 5.18555 14.1663 5.18555C14.0673 5.18555 13.9693 5.20515 13.8779 5.24323C13.7865 5.2813 13.7036 5.3371 13.6338 5.4074L8.04634 11.0024L5.69884 8.6474C5.62645 8.57747 5.541 8.52248 5.44736 8.48558C5.35371 8.44868 5.25372 8.43058 5.15309 8.43232C5.05245 8.43406 4.95314 8.45561 4.86083 8.49573C4.76853 8.53585 4.68502 8.59375 4.61509 8.66615C4.54517 8.73854 4.49018 8.82399 4.45328 8.91763C4.41637 9.01128 4.39828 9.11127 4.40002 9.2119C4.40176 9.31254 4.4233 9.41185 4.46342 9.50416C4.50354 9.59646 4.56145 9.67997 4.63384 9.7499L7.51384 12.6299C7.58357 12.7002 7.66652 12.756 7.75791 12.7941C7.84931 12.8321 7.94734 12.8517 8.04634 12.8517C8.14535 12.8517 8.24338 12.8321 8.33478 12.7941C8.42617 12.756 8.50912 12.7002 8.57884 12.6299L14.6988 6.5099C14.775 6.43966 14.8357 6.35443 14.8773 6.25955C14.9188 6.16468 14.9403 6.06222 14.9403 5.95865C14.9403 5.85507 14.9188 5.75262 14.8773 5.65774C14.8357 5.56287 14.775 5.47763 14.6988 5.4074Z" fill="#FFD966"/>
</svg>
