<svg width="19" height="18" viewBox="0 0 19 18" fill="none" xmlns="http://www.w3.org/2000/svg">
<path d="M14.3656 5.4074C14.2959 5.3371 14.2129 5.2813 14.1215 5.24323C14.0301 5.20515 13.9321 5.18555 13.8331 5.18555C13.7341 5.18555 13.6361 5.20515 13.5447 5.24323C13.4533 5.2813 13.3703 5.3371 13.3006 5.4074L7.71309 11.0024L5.36559 8.6474C5.2932 8.57747 5.20775 8.52248 5.1141 8.48558C5.02046 8.44868 4.92047 8.43058 4.81983 8.43232C4.7192 8.43406 4.61989 8.45561 4.52758 8.49573C4.43527 8.53585 4.35177 8.59375 4.28184 8.66615C4.21191 8.73854 4.15693 8.82399 4.12002 8.91763C4.08312 9.01128 4.06502 9.11127 4.06677 9.2119C4.06851 9.31254 4.09005 9.41185 4.13017 9.50416C4.17029 9.59646 4.2282 9.67997 4.30059 9.7499L7.18059 12.6299C7.25031 12.7002 7.33327 12.756 7.42466 12.7941C7.51605 12.8321 7.61408 12.8517 7.71309 12.8517C7.8121 12.8517 7.91013 12.8321 8.00152 12.7941C8.09292 12.756 8.17587 12.7002 8.24559 12.6299L14.3656 6.5099C14.4417 6.43966 14.5025 6.35443 14.544 6.25955C14.5856 6.16468 14.607 6.06222 14.607 5.95865C14.607 5.85507 14.5856 5.75262 14.544 5.65774C14.5025 5.56287 14.4417 5.47763 14.3656 5.4074Z" fill="#90DDA9"/>
</svg>
