<svg width="36" height="36" viewBox="0 0 36 36" fill="none" xmlns="http://www.w3.org/2000/svg">
<rect width="36" height="36" rx="8" fill="#292929"/>
<path d="M18.71 22.29L18.56 22.17C18.5043 22.1322 18.4437 22.1019 18.38 22.08L18.2 22C18.0378 21.9661 17.8698 21.973 17.7109 22.0201C17.5521 22.0673 17.4074 22.1531 17.29 22.27C17.2017 22.3672 17.1306 22.4788 17.08 22.6C17.0043 22.7822 16.9842 22.9827 17.0223 23.1763C17.0603 23.3699 17.1547 23.5479 17.2937 23.688C17.4327 23.828 17.61 23.9238 17.8033 23.9633C17.9966 24.0028 18.1972 23.9843 18.38 23.91C18.4995 23.852 18.6105 23.778 18.71 23.69C18.8488 23.5494 18.9428 23.3708 18.9801 23.1768C19.0175 22.9828 18.9966 22.7821 18.92 22.6C18.8701 22.4844 18.7989 22.3792 18.71 22.29ZM22 8H14C13.2044 8 12.4413 8.31607 11.8787 8.87868C11.3161 9.44129 11 10.2044 11 11V25C11 25.7956 11.3161 26.5587 11.8787 27.1213C12.4413 27.6839 13.2044 28 14 28H22C22.7956 28 23.5587 27.6839 24.1213 27.1213C24.6839 26.5587 25 25.7956 25 25V11C25 10.2044 24.6839 9.44129 24.1213 8.87868C23.5587 8.31607 22.7956 8 22 8ZM23 25C23 25.2652 22.8946 25.5196 22.7071 25.7071C22.5196 25.8946 22.2652 26 22 26H14C13.7348 26 13.4804 25.8946 13.2929 25.7071C13.1054 25.5196 13 25.2652 13 25V11C13 10.7348 13.1054 10.4804 13.2929 10.2929C13.4804 10.1054 13.7348 10 14 10H22C22.2652 10 22.5196 10.1054 22.7071 10.2929C22.8946 10.4804 23 10.7348 23 11V25Z" fill="#90DDA9"/>
</svg>
