<svg width="58" height="58" viewBox="0 0 58 58" fill="none" xmlns="http://www.w3.org/2000/svg">
<rect width="58" height="58" rx="10.4722" fill="#292929"/>
<g clip-path="url(#clip0_142_48)">
<path d="M29.0001 48.3333C39.6777 48.3333 48.3334 39.6776 48.3334 29C48.3334 18.3223 39.6777 9.66663 29.0001 9.66663C18.3224 9.66663 9.66675 18.3223 9.66675 29C9.66675 39.6776 18.3224 48.3333 29.0001 48.3333Z" fill="white"/>
<path fill-rule="evenodd" clip-rule="evenodd" d="M32.593 16.9716L19.1805 17.9592C18.0994 18.0526 17.7224 18.7575 17.7224 19.6025V34.262C17.7224 34.9202 17.9576 35.4832 18.5223 36.2356L21.6753 40.323C22.1932 40.9811 22.6637 41.1221 23.6529 41.0754L39.2283 40.1353C40.5454 40.0419 40.9224 39.4305 40.9224 38.3969V21.9056C40.9224 21.3707 40.7106 21.2168 40.0871 20.7617C40.0516 20.7357 40.0161 20.7097 39.9807 20.6836L35.6992 17.6764C34.6641 16.9256 34.2403 16.8306 32.593 16.9716ZM24.0057 21.6349C22.7338 21.7203 22.4454 21.7396 21.7228 21.154L19.8861 19.6976C19.6992 19.5091 19.7935 19.2738 20.2631 19.2271L33.1577 18.2878C34.2395 18.1936 34.8042 18.5698 35.2279 18.8985L37.44 20.4959C37.5342 20.5434 37.7687 20.8245 37.4867 20.8245L24.1701 21.6236L24.0057 21.6349ZM22.5227 38.256V24.2554C22.5227 23.644 22.7104 23.362 23.2751 23.3145L38.5686 22.422C39.0874 22.3752 39.3226 22.7039 39.3226 23.3145V37.2216C39.3226 37.833 39.2283 38.3502 38.3801 38.3969L23.7456 39.2428C22.8989 39.2895 22.5227 39.0083 22.5227 38.256ZM36.9704 25.0062C37.0638 25.4291 36.9704 25.852 36.5458 25.9003L35.8402 26.0397V36.3766C35.2279 36.7053 34.6641 36.893 34.1936 36.893C33.4404 36.893 33.2511 36.6577 32.6872 35.9537L28.0746 28.7182V35.7185L29.5343 36.0479C29.5343 36.0479 29.5343 36.8938 28.3566 36.8938L25.1102 37.0815C25.0167 36.893 25.1102 36.4241 25.4404 36.3299L26.2863 36.0955V26.8396L25.1102 26.7446C25.0167 26.3217 25.2511 25.711 25.9109 25.6643L29.3933 25.4291L34.1936 32.7597V26.2749L32.9692 26.1348C32.8757 25.6168 33.2511 25.2414 33.7224 25.1947L36.9704 25.0062Z" fill="black"/>
</g>
<defs>
<clipPath id="clip0_142_48">
<rect width="38.6667" height="38.6667" fill="white" transform="translate(9.66675 9.66663)"/>
</clipPath>
</defs>
</svg>
