<svg width="58" height="58" viewBox="0 0 58 58" fill="none" xmlns="http://www.w3.org/2000/svg">
<rect width="58" height="58" rx="10.4722" fill="#292929"/>
<path d="M40.782 11.4791H17.2195C13.7159 11.4791 10.8757 14.3193 10.8757 17.8229V40.177C10.8757 43.6806 13.7159 46.5208 17.2195 46.5208H40.782C44.2855 46.5208 47.1257 43.6806 47.1257 40.177V17.8229C47.1257 14.3193 44.2855 11.4791 40.782 11.4791Z" fill="#001E36"/>
<path d="M18.4268 37.2891V20.8437C18.4238 20.8208 18.4262 20.7975 18.4336 20.7756C18.4411 20.7537 18.4534 20.7339 18.4698 20.7175C18.4861 20.7012 18.506 20.6888 18.5279 20.6814C18.5497 20.6739 18.573 20.6716 18.596 20.6745C19.8209 20.6428 21.2664 20.5416 23.1514 20.5416C25.3747 20.5416 27.006 21.0053 28.0451 22.0037C28.55 22.4761 28.9497 23.0494 29.2182 23.6865C29.4868 24.3235 29.6182 25.01 29.6039 25.7012C29.6039 27.5228 28.9594 28.8761 27.6705 29.7612C26.3816 30.6463 24.7605 31.0894 22.807 31.0904L21.4476 31.1145V37.265C21.4514 37.2912 21.449 37.318 21.4407 37.3432C21.4323 37.3684 21.4182 37.3913 21.3994 37.4101C21.3806 37.4288 21.3577 37.443 21.3325 37.4513C21.3073 37.4597 21.2806 37.4621 21.2543 37.4583H18.6201C18.4917 37.4583 18.4268 37.4024 18.4268 37.2891ZM21.4476 22.9009V28.8489C21.4476 28.8489 22.1364 28.8217 22.958 28.8217C24.0385 28.8217 24.9125 28.5841 25.5801 28.1088C26.2477 27.6335 26.582 26.8552 26.583 25.7737C26.583 24.8232 26.289 24.0901 25.701 23.5745C25.1129 23.059 24.263 22.8032 23.1514 22.8073C22.878 22.8073 22.6076 22.8073 22.3418 22.8193C22.076 22.8314 21.8585 22.8314 21.6893 22.8314C21.5201 22.8314 21.4295 22.8254 21.4476 22.9009ZM39.5726 33.5312C39.5726 35.3815 38.3643 36.25 38.3643 36.25V36.2409C38.2918 36.3119 38.2132 36.3783 38.1362 36.4433C37.3045 37.12 36.1802 37.4583 34.7635 37.4583C33.3467 37.4583 32.1887 37.1975 31.2895 36.6759C31.2398 36.6586 31.1976 36.6246 31.17 36.5798C31.1425 36.5349 31.1313 36.4819 31.1385 36.4297V34.1535C31.1362 34.1278 31.1406 34.1019 31.1512 34.0784C31.1617 34.0549 31.1782 34.0345 31.1989 34.0191C31.2153 34.0072 31.2355 34.0019 31.2556 34.0042C31.2757 34.0064 31.2942 34.016 31.3076 34.0312C32.2662 34.7843 33.4478 35.1977 34.6668 35.2063C35.2297 35.2063 35.6606 35.1056 35.9597 34.9042C36.0976 34.822 36.2118 34.7054 36.2912 34.5659C36.3706 34.4264 36.4125 34.2687 36.4128 34.1082C36.4161 33.9462 36.3855 33.7853 36.3231 33.6357C36.2607 33.4862 36.1678 33.3513 36.0503 33.2397C35.8087 33.0021 35.3334 32.7448 34.6245 32.4679C33.3346 31.9644 32.4364 31.4217 31.9299 30.8396C31.3938 30.2565 31.1019 29.4899 31.1143 28.6979C31.1146 28.2052 31.2204 27.7182 31.4247 27.2698C31.6289 26.8215 31.9269 26.422 32.2985 26.0984C33.0547 25.4127 34.1341 25.0699 35.5368 25.0699C36.8458 25.0699 37.8528 25.2496 38.5576 25.6091C38.6377 25.6574 38.6785 25.7601 38.6785 25.9263V27.9578C38.6785 28.1541 38.606 28.2025 38.461 28.1088C37.6207 27.5568 36.6388 27.2594 35.6335 27.2524C35.0686 27.2524 34.6547 27.3596 34.3889 27.5711C34.2679 27.657 34.1688 27.77 34.0995 27.9012C34.0303 28.0324 33.9928 28.178 33.9901 28.3263C33.9897 28.4714 34.0195 28.615 34.0778 28.7479C34.1361 28.8809 34.2214 29.0001 34.3285 29.0981C34.554 29.3187 35.0293 29.5754 35.7543 29.8684C37.019 30.3629 37.9253 30.8824 38.473 31.4272L38.4866 31.4408C39.05 31.9589 39.5726 32.6718 39.5726 33.5312Z" fill="#31A8FF"/>
</svg>
