<svg width="58" height="58" viewBox="0 0 58 58" fill="none" xmlns="http://www.w3.org/2000/svg">
<rect width="58" height="58" rx="10.4722" fill="#292929"/>
<g clip-path="url(#clip0_142_60)">
<path fill-rule="evenodd" clip-rule="evenodd" d="M24.2161 11.3651C23.7522 11.3655 23.293 11.4573 22.8646 11.6353C22.4362 11.8132 22.047 12.0738 21.7194 12.4022C21.3917 12.7305 21.1319 13.1202 20.9548 13.5489C20.7778 13.9777 20.6869 14.4371 20.6874 14.901C20.687 15.3648 20.7779 15.8242 20.955 16.2529C21.1321 16.6816 21.3919 17.0712 21.7196 17.3995C22.0473 17.7277 22.4364 17.9883 22.8647 18.1662C23.2931 18.3441 23.7523 18.4358 24.2161 18.4363H27.7448V14.901C27.7453 14.4371 27.6545 13.9777 27.4774 13.5489C27.3003 13.1202 27.0406 12.7305 26.7129 12.4022C26.3852 12.0738 25.9961 11.8132 25.5677 11.6353C25.1393 11.4573 24.68 11.3655 24.2161 11.3651ZM24.2161 20.794H14.8063C14.3425 20.7944 13.8833 20.8862 13.4549 21.0641C13.0265 21.242 12.6374 21.5025 12.3098 21.8308C11.9821 22.1591 11.7223 22.5487 11.5452 22.9774C11.3681 23.4061 11.2772 23.8654 11.2776 24.3292C11.2771 24.7931 11.3679 25.2526 11.545 25.6813C11.7221 26.1101 11.9818 26.4998 12.3095 26.8281C12.6372 27.1565 13.0264 27.417 13.4548 27.595C13.8831 27.7729 14.3424 27.8647 14.8063 27.8652H24.2161C24.68 27.8647 25.1393 27.7729 25.5677 27.595C25.9961 27.417 26.3852 27.1565 26.7129 26.8281C27.0406 26.4998 27.3003 26.1101 27.4774 25.6813C27.6545 25.2526 27.7453 24.7931 27.7448 24.3292C27.7452 23.8654 27.6543 23.4061 27.4772 22.9774C27.3001 22.5487 27.0403 22.1591 26.7126 21.8308C26.385 21.5025 25.9959 21.242 25.5675 21.0641C25.1391 20.8862 24.6799 20.7944 24.2161 20.794Z" fill="#36C5F0"/>
<path fill-rule="evenodd" clip-rule="evenodd" d="M46.5642 24.3292C46.5646 23.8654 46.4737 23.4061 46.2966 22.9774C46.1195 22.5487 45.8597 22.1591 45.532 21.8308C45.2043 21.5025 44.8152 21.242 44.3868 21.0641C43.9585 20.8862 43.4993 20.7944 43.0355 20.794C42.5716 20.7944 42.1124 20.8862 41.6841 21.0641C41.2557 21.242 40.8666 21.5025 40.5389 21.8308C40.2113 22.1591 39.9515 22.5487 39.7744 22.9774C39.5973 23.4061 39.5063 23.8654 39.5068 24.3292V27.8652H43.0355C43.4993 27.8647 43.9586 27.7729 44.387 27.595C44.8154 27.417 45.2045 27.1565 45.5322 26.8281C45.8599 26.4998 46.1197 26.1101 46.2967 25.6813C46.4738 25.2526 46.5647 24.7931 46.5642 24.3292ZM37.1543 24.3292V14.901C37.1548 14.4371 37.064 13.9777 36.8869 13.5489C36.7098 13.1202 36.45 12.7305 36.1224 12.4022C35.7947 12.0738 35.4055 11.8132 34.9771 11.6353C34.5488 11.4573 34.0895 11.3655 33.6256 11.3651C33.1617 11.3655 32.7025 11.4573 32.2741 11.6353C31.8457 11.8132 31.4565 12.0738 31.1289 12.4022C30.8012 12.7305 30.5414 13.1202 30.3643 13.5489C30.1873 13.9777 30.0964 14.4371 30.0969 14.901V24.3292C30.0964 24.7931 30.1873 25.2526 30.3643 25.6813C30.5414 26.1101 30.8012 26.4998 31.1289 26.8281C31.4565 27.1565 31.8457 27.417 32.2741 27.595C32.7025 27.7729 33.1617 27.8647 33.6256 27.8652C34.0895 27.8647 34.5488 27.7729 34.9771 27.595C35.4055 27.417 35.7947 27.1565 36.1224 26.8281C36.45 26.4998 36.7098 26.1101 36.8869 25.6813C37.064 25.2526 37.1548 24.7931 37.1543 24.3292Z" fill="#2EB67D"/>
<path fill-rule="evenodd" clip-rule="evenodd" d="M33.6256 46.7222C34.0895 46.7218 34.5488 46.63 34.9771 46.452C35.4055 46.2741 35.7947 46.0135 36.1224 45.6852C36.45 45.3568 36.7098 44.9671 36.8869 44.5384C37.064 44.1096 37.1548 43.6502 37.1543 43.1863C37.1547 42.7225 37.0638 42.2631 36.8867 41.8344C36.7096 41.4057 36.4498 41.0161 36.1221 40.6879C35.7945 40.3596 35.4053 40.0991 34.977 39.9212C34.5486 39.7433 34.0894 39.6515 33.6256 39.651H30.0969V43.1863C30.0964 43.6502 30.1873 44.1096 30.3643 44.5384C30.5414 44.9671 30.8012 45.3568 31.1289 45.6852C31.4565 46.0135 31.8457 46.2741 32.2741 46.452C32.7025 46.63 33.1617 46.7218 33.6256 46.7222ZM33.6256 37.2933H43.0355C43.4993 37.2929 43.9585 37.2011 44.3868 37.0232C44.8152 36.8453 45.2043 36.5848 45.532 36.2565C45.8597 35.9282 46.1195 35.5386 46.2966 35.11C46.4737 34.6813 46.5646 34.2219 46.5642 33.7581C46.5647 33.2942 46.4738 32.8348 46.2967 32.406C46.1197 31.9772 45.8599 31.5876 45.5322 31.2592C45.2045 30.9309 44.8154 30.6703 44.387 30.4923C43.9586 30.3144 43.4993 30.2226 43.0355 30.2222H33.6256C33.1617 30.2226 32.7025 30.3144 32.2741 30.4923C31.8457 30.6703 31.4565 30.9309 31.1289 31.2592C30.8012 31.5876 30.5414 31.9772 30.3643 32.406C30.1873 32.8348 30.0964 33.2942 30.0969 33.7581C30.0965 34.2219 30.1874 34.6813 30.3645 35.11C30.5416 35.5386 30.8014 35.9282 31.1291 36.2565C31.4568 36.5848 31.8459 36.8453 32.2742 37.0232C32.7026 37.2011 33.1618 37.2929 33.6256 37.2933Z" fill="#ECB22E"/>
<path fill-rule="evenodd" clip-rule="evenodd" d="M11.2773 33.7581C11.2769 34.2219 11.3678 34.6813 11.5449 35.11C11.722 35.5386 11.9818 35.9282 12.3095 36.2565C12.6372 36.5848 13.0263 36.8453 13.4547 37.0232C13.883 37.2011 14.3422 37.2929 14.806 37.2933C15.2699 37.2929 15.7291 37.2011 16.1574 37.0232C16.5858 36.8453 16.9749 36.5848 17.3026 36.2565C17.6302 35.9282 17.89 35.5386 18.0671 35.11C18.2442 34.6813 18.3352 34.2219 18.3347 33.7581V30.2222H14.806C14.3421 30.2226 13.8828 30.3144 13.4544 30.4924C13.0259 30.6704 12.6367 30.931 12.3091 31.2594C11.9814 31.5879 11.7216 31.9776 11.5446 32.4065C11.3675 32.8353 11.2767 33.2941 11.2773 33.7581ZM20.6872 33.7581V43.1863C20.6867 43.6502 20.7775 44.1096 20.9546 44.5384C21.1317 44.9671 21.3914 45.3568 21.7191 45.6852C22.0468 46.0135 22.436 46.2741 22.8644 46.452C23.2927 46.63 23.752 46.7218 24.2159 46.7222C24.6798 46.7218 25.139 46.63 25.5674 46.452C25.9958 46.2741 26.385 46.0135 26.7126 45.6852C27.0403 45.3568 27.3001 44.9671 27.4772 44.5384C27.6542 44.1096 27.7451 43.6502 27.7446 43.1863V33.7587C27.7451 33.2949 27.6542 32.8354 27.4772 32.4067C27.3001 31.9779 27.0403 31.5882 26.7126 31.2599C26.385 30.9315 25.9958 30.6709 25.5674 30.493C25.139 30.3151 24.6798 30.2233 24.2159 30.2228C23.752 30.2233 23.2927 30.3151 22.8644 30.493C22.436 30.6709 22.0468 30.9315 21.7191 31.2599C21.3914 31.5882 21.1317 31.9779 20.9546 32.4067C20.7775 32.8354 20.6867 33.2942 20.6872 33.7581Z" fill="#E01E5A"/>
</g>
<defs>
<clipPath id="clip0_142_60">
<rect width="35.4444" height="35.4444" fill="white" transform="translate(11.2778 11.2778)"/>
</clipPath>
</defs>
</svg>
