<svg width="58" height="58" viewBox="0 0 58 58" fill="none" xmlns="http://www.w3.org/2000/svg">
<rect width="58" height="58" rx="10.4722" fill="#292929"/>
<g clip-path="url(#clip0_142_67)">
<path d="M43.5001 9.66663H14.5001C13.2182 9.66663 11.9888 10.1759 11.0824 11.0823C10.176 11.9887 9.66675 13.2181 9.66675 14.5L9.66675 43.5C9.66675 44.7818 10.176 46.0112 11.0824 46.9176C11.9888 47.8241 13.2182 48.3333 14.5001 48.3333H43.5001C44.782 48.3333 46.0113 47.8241 46.9178 46.9176C47.8242 46.0112 48.3334 44.7818 48.3334 43.5V14.5C48.3334 13.2181 47.8242 11.9887 46.9178 11.0823C46.0113 10.1759 44.782 9.66663 43.5001 9.66663Z" fill="#0277BD"/>
<path d="M26.5831 38.6667C26.5831 39.3076 26.3285 39.9223 25.8753 40.3755C25.4221 40.8287 24.8074 41.0833 24.1664 41.0833H16.9164C16.2755 41.0833 15.6608 40.8287 15.2076 40.3755C14.7544 39.9223 14.4998 39.3076 14.4998 38.6667V16.9167C14.4998 16.2757 14.7544 15.661 15.2076 15.2078C15.6608 14.7546 16.2755 14.5 16.9164 14.5H24.1664C24.8074 14.5 25.4221 14.7546 25.8753 15.2078C26.3285 15.661 26.5831 16.2757 26.5831 16.9167V38.6667ZM43.4998 29C43.4998 29.6409 43.2451 30.2556 42.7919 30.7088C42.3387 31.1621 41.724 31.4167 41.0831 31.4167H33.8331C33.1922 31.4167 32.5775 31.1621 32.1242 30.7088C31.671 30.2556 31.4164 29.6409 31.4164 29V16.9167C31.4164 16.2757 31.671 15.661 32.1242 15.2078C32.5775 14.7546 33.1922 14.5 33.8331 14.5H41.0831C41.724 14.5 42.3387 14.7546 42.7919 15.2078C43.2451 15.661 43.4998 16.2757 43.4998 16.9167V29Z" fill="#ECEFF1"/>
</g>
<defs>
<clipPath id="clip0_142_67">
<rect width="38.6667" height="38.6667" fill="white" transform="translate(9.66675 9.66663)"/>
</clipPath>
</defs>
</svg>
