<svg width="36" height="36" viewBox="0 0 36 36" fill="none" xmlns="http://www.w3.org/2000/svg">
<rect width="36" height="36" rx="8" fill="#292929"/>
<path d="M27.15 8.86001C26.768 8.47057 26.2835 8.19723 25.7526 8.07158C25.2217 7.94594 24.6661 7.97313 24.15 8.15001L10 12.88C9.42936 13.0668 8.93074 13.4262 8.573 13.9084C8.21527 14.3907 8.01607 14.9722 8.0029 15.5725C7.98973 16.1728 8.16324 16.7625 8.49948 17.26C8.83572 17.7575 9.31811 18.1384 9.88005 18.35L15.12 20.35C15.2394 20.3956 15.348 20.4654 15.4392 20.5548C15.5304 20.6443 15.6022 20.7516 15.65 20.87L17.65 26.12C17.8536 26.674 18.2231 27.1518 18.708 27.4882C19.193 27.8246 19.7698 28.0033 20.36 28H20.43C21.0311 27.9891 21.6136 27.7903 22.096 27.4317C22.5784 27.073 22.9365 26.5724 23.1201 26L27.85 11.83C28.0221 11.3189 28.0477 10.77 27.924 10.2451C27.8003 9.72024 27.5322 9.24046 27.15 8.86001ZM26 11.2L21.22 25.38C21.1645 25.5595 21.0531 25.7165 20.9019 25.828C20.7508 25.9396 20.5679 25.9999 20.38 26C20.1933 26.0031 20.01 25.9492 19.8546 25.8456C19.6992 25.742 19.579 25.5936 19.51 25.42L17.51 20.17C17.3651 19.7885 17.1414 19.4418 16.8537 19.1524C16.566 18.863 16.2207 18.6373 15.84 18.49L10.59 16.49C10.4129 16.4251 10.2607 16.3062 10.1548 16.1501C10.049 15.994 9.99482 15.8086 10 15.62C10.0002 15.4322 10.0605 15.2493 10.172 15.0981C10.2836 14.947 10.4406 14.8355 10.62 14.78L24.8 10.05C24.9629 9.98366 25.1414 9.96588 25.3141 9.99883C25.4868 10.0318 25.6462 10.1141 25.7731 10.2357C25.9001 10.3573 25.989 10.5131 26.0293 10.6843C26.0696 10.8554 26.0594 11.0345 26 11.2Z" fill="#90DDA9"/>
</svg>
