<svg width="36" height="36" viewBox="0 0 36 36" fill="none" xmlns="http://www.w3.org/2000/svg">
<rect width="36" height="36" rx="8" fill="#292929"/>
<path d="M22.0005 16H20.0005V14C20.0005 13.7348 19.8951 13.4804 19.7076 13.2929C19.52 13.1053 19.2657 13 19.0005 13H14.0005C13.7353 13 13.4809 13.1053 13.2934 13.2929C13.1058 13.4804 13.0005 13.7348 13.0005 14V19C13.0005 19.2652 13.1058 19.5196 13.2934 19.7071C13.4809 19.8946 13.7353 20 14.0005 20H16.0005V22C16.0005 22.2652 16.1058 22.5196 16.2934 22.7071C16.4809 22.8946 16.7353 23 17.0005 23H22.0005C22.2657 23 22.52 22.8946 22.7076 22.7071C22.8951 22.5196 23.0005 22.2652 23.0005 22V17C23.0005 16.7348 22.8951 16.4804 22.7076 16.2929C22.52 16.1053 22.2657 16 22.0005 16ZM16.0005 17V18H15.0005V15H18.0005V16H17.0005C16.7353 16 16.4809 16.1053 16.2934 16.2929C16.1058 16.4804 16.0005 16.7348 16.0005 17ZM21.0005 21H18.0005V18H21.0005V21ZM27.0005 24.28V11.72C27.2709 11.5695 27.5028 11.3584 27.6778 11.1032C27.8528 10.8479 27.9662 10.5556 28.009 10.2491C28.0519 9.94257 28.023 9.63031 27.9247 9.33686C27.8264 9.04342 27.6613 8.77679 27.4425 8.55795C27.2237 8.33912 26.957 8.17406 26.6636 8.07575C26.3701 7.97745 26.0579 7.94858 25.7514 7.99143C25.4449 8.03427 25.1525 8.14766 24.8973 8.32267C24.642 8.49768 24.4309 8.72953 24.2805 8.99998H11.7205C11.57 8.72953 11.3589 8.49768 11.1037 8.32267C10.8484 8.14766 10.556 8.03427 10.2495 7.99143C9.94305 7.94858 9.6308 7.97745 9.33735 8.07575C9.0439 8.17406 8.77727 8.33912 8.55844 8.55795C8.33961 8.77679 8.17455 9.04342 8.07624 9.33686C7.97794 9.63031 7.94907 9.94257 7.99192 10.2491C8.03476 10.5556 8.14815 10.8479 8.32316 11.1032C8.49817 11.3584 8.73002 11.5695 9.00047 11.72V24.28C8.73002 24.4304 8.49817 24.6416 8.32316 24.8968C8.14815 25.152 8.03476 25.4444 7.99192 25.7509C7.94907 26.0574 7.97794 26.3697 8.07624 26.6631C8.17455 26.9566 8.33961 27.2232 8.55844 27.442C8.77727 27.6608 9.0439 27.8259 9.33735 27.9242C9.6308 28.0225 9.94305 28.0514 10.2495 28.0085C10.556 27.9657 10.8484 27.8523 11.1037 27.6773C11.3589 27.5023 11.57 27.2704 11.7205 27H24.2805C24.4309 27.2704 24.642 27.5023 24.8973 27.6773C25.1525 27.8523 25.4449 27.9657 25.7514 28.0085C26.0579 28.0514 26.3701 28.0225 26.6636 27.9242C26.957 27.8259 27.2237 27.6608 27.4425 27.442C27.6613 27.2232 27.8264 26.9566 27.9247 26.6631C28.023 26.3697 28.0519 26.0574 28.009 25.7509C27.9662 25.4444 27.8528 25.152 27.6778 24.8968C27.5028 24.6416 27.2709 24.4304 27.0005 24.28ZM25.0005 24.28C24.6997 24.4504 24.4509 24.6993 24.2805 25H11.7205C11.55 24.6993 11.3012 24.4504 11.0005 24.28V11.72C11.3012 11.5496 11.55 11.3007 11.7205 11H24.2805C24.4509 11.3007 24.6997 11.5496 25.0005 11.72V24.28Z" fill="#90DDA9"/>
</svg>
