<svg width="58" height="58" viewBox="0 0 58 58" fill="none" xmlns="http://www.w3.org/2000/svg">
<rect width="58" height="58" rx="10.4722" fill="#292929"/>
<path d="M40.782 11.4791H17.2195C13.7159 11.4791 10.8757 14.3193 10.8757 17.8229V40.177C10.8757 43.6806 13.7159 46.5208 17.2195 46.5208H40.782C44.2855 46.5208 47.1257 43.6806 47.1257 40.177V17.8229C47.1257 14.3193 44.2855 11.4791 40.782 11.4791Z" fill="#470137"/>
<path d="M29.5094 21.3935L25.0507 29.0543L29.8553 37.2106C29.9535 37.3767 29.9112 37.4583 29.7315 37.4583H26.7348C26.6606 37.4661 26.5858 37.4514 26.52 37.4161C26.4543 37.3808 26.4007 37.3266 26.3663 37.2604L22.9844 31.0571H22.9588L19.6661 37.2604C19.6358 37.3194 19.5899 37.3691 19.5335 37.4039C19.4771 37.4388 19.4122 37.4576 19.3458 37.4583H16.464C16.2993 37.4583 16.2676 37.3767 16.3658 37.2106L21.0904 29.2778L16.5893 21.3436C16.4912 21.2122 16.5244 21.1458 16.6875 21.1458H19.6902C19.7546 21.1412 19.819 21.1551 19.8757 21.1858C19.9324 21.2166 19.9792 21.263 20.0104 21.3195L23.1823 27.4487H23.2065L26.3617 21.3195C26.3929 21.2632 26.4394 21.217 26.4958 21.1863C26.5523 21.1555 26.6163 21.1415 26.6804 21.1458H29.4113C29.5925 21.1458 29.6242 21.2288 29.5094 21.3935ZM36.835 37.7603C35.0829 37.7603 33.7341 37.2634 32.6874 36.2711C31.6406 35.2787 31.115 33.8121 31.115 31.8697C31.115 30.1046 31.6779 28.6546 32.8037 27.5197C33.3797 26.9235 34.0723 26.4522 34.8383 26.1352C35.6044 25.8182 36.4275 25.6622 37.2564 25.677C37.6274 25.6704 37.9977 25.71 38.359 25.7948V20.6836C38.3562 20.6644 38.358 20.6449 38.3641 20.6265C38.3701 20.6082 38.3804 20.5915 38.394 20.5777C38.4076 20.564 38.4242 20.5536 38.4425 20.5473C38.4608 20.541 38.4803 20.5391 38.4994 20.5416H41.2605C41.3375 20.5416 41.3768 20.5884 41.3768 20.6836V34.9948C41.3768 35.5989 41.6381 36.114 41.6789 36.555C41.6872 36.5987 41.68 36.6439 41.6585 36.6828C41.6369 36.7217 41.6025 36.7519 41.5611 36.768C40.2062 37.4296 38.43 37.7603 36.835 37.7603ZM38.365 35.4207V28.1148C38.2668 27.9426 37.7473 27.7916 37.2156 27.7916C36.7755 27.7802 36.3385 27.8672 35.9364 28.0462C35.5342 28.2251 35.1771 28.4917 34.8911 28.8262C34.1944 29.6421 33.8186 30.6837 33.8338 31.7564C33.8338 33.0796 34.2869 33.9858 34.8775 34.6157C35.1566 34.9358 35.5004 35.1931 35.8863 35.3706C36.2721 35.5482 36.6912 35.642 37.1159 35.6458C37.6793 35.6458 38.2306 35.5612 38.365 35.4207Z" fill="#FF61F6"/>
</svg>
