<svg width="153" height="28" viewBox="0 0 153 28" fill="none" xmlns="http://www.w3.org/2000/svg">
<path d="M29.1 19.78L28.72 21.718C28.72 22.706 29.138 23.5167 29.974 24.15C30.8353 24.7833 31.8613 25.1 33.052 25.1C34.2426 25.1 35.2686 24.72 36.13 23.96C37.0166 23.1747 37.46 22.1487 37.46 20.882C37.46 19.6153 37.042 18.6147 36.206 17.88C35.37 17.12 34.3946 16.74 33.28 16.74C32.7226 16.74 32.1273 16.93 31.494 17.31C30.8606 17.69 30.4426 17.88 30.24 17.88C29.48 17.88 29.1 17.5 29.1 16.74C29.1 16.2587 29.5306 15.7647 30.392 15.258C31.2786 14.726 32.2413 14.46 33.28 14.46C34.952 14.46 36.4466 15.0427 37.764 16.208C39.0813 17.3733 39.74 18.9187 39.74 20.844C39.74 22.7693 39.0813 24.34 37.764 25.556C36.4466 26.772 34.914 27.38 33.166 27.38C31.4433 27.38 29.9613 26.9367 28.72 26.05C27.504 25.1633 26.7693 24.0487 26.516 22.706C25.3 23.7953 24.0713 24.34 22.83 24.34C21.614 24.34 20.6893 23.58 20.056 22.06C19.7013 21.224 19.3973 19.8433 19.144 17.918C18.916 15.9927 18.7006 14.3333 18.498 12.94C18.2953 11.5213 18.0293 10.812 17.7 10.812C17.4213 10.812 17.0413 11.7747 16.56 13.7C16.0786 15.6 15.7113 17.5127 15.458 19.438C15.23 21.3633 14.9006 22.7313 14.47 23.542C14.0393 24.3273 13.3046 24.72 12.266 24.72C11.2273 24.72 10.3913 23.96 9.75796 22.44C9.35263 21.5787 8.9473 19.8433 8.54196 17.234C8.13663 14.6247 7.76929 12.2687 7.43996 10.166C7.13596 8.06333 6.88263 7.012 6.67996 7.012C6.32529 7.012 5.66663 9.76067 4.70396 15.258C3.74129 20.7553 3.25996 24.302 3.25996 25.898C3.25996 26.6327 2.87996 27 2.11996 27C1.35996 27 0.979961 26.6327 0.979961 25.898C0.979961 24.2513 1.39796 21.0087 2.23396 16.17C3.06996 11.306 3.62729 8.46867 3.90596 7.658C4.20996 6.822 4.42529 6.27733 4.55196 6.024C4.67863 5.77067 4.93196 5.492 5.31196 5.188C5.69196 4.884 6.14796 4.732 6.67996 4.732C7.21196 4.732 7.66796 4.884 8.04796 5.188C8.63063 5.66933 8.99796 6.27733 9.14996 7.012C9.3273 7.72133 9.61863 9.46933 10.024 12.256C11.0373 19.0707 11.8226 22.4653 12.38 22.44C12.684 22.44 12.9753 21.186 13.254 18.678C13.558 16.1447 14.204 13.5227 15.192 10.812C15.42 10.1027 15.7113 9.54533 16.066 9.14C16.446 8.73467 16.9906 8.532 17.7 8.532C18.916 8.532 19.79 9.292 20.322 10.812C20.5246 11.3187 20.74 12.56 20.968 14.536C21.196 16.4867 21.4493 18.2347 21.728 19.78C22.032 21.3 22.412 22.06 22.868 22.06C23.3493 22.06 23.9193 21.8193 24.578 21.338C25.262 20.8567 25.8193 20.2867 26.25 19.628C26.706 18.9693 27.276 18.64 27.96 18.64C28.72 18.64 29.1 19.02 29.1 19.78ZM62.9811 24.72C62.9811 25.7333 61.8158 26.24 59.4851 26.24C58.3958 26.24 57.5471 25.9993 56.9391 25.518C56.3565 25.0367 56.0651 24.2007 56.0651 23.01C56.0651 21.8193 55.9638 20.7933 55.7611 19.932C55.5585 19.0707 55.2798 18.64 54.9251 18.64C53.8611 18.64 52.8478 19.628 51.8851 21.604C51.4798 22.4147 51.0491 23.238 50.5931 24.074C50.1371 24.8847 49.5291 25.5813 48.7691 26.164C48.0345 26.7213 47.1731 27 46.1851 27C43.9051 27 42.7651 24.796 42.7651 20.388C42.7651 17.2213 43.1071 14.1433 43.7911 11.154C44.5005 8.16467 45.4758 5.70733 46.7171 3.782C47.9838 1.83133 49.3138 0.855999 50.7071 0.855999C52.1005 0.855999 53.1518 1.36267 53.8611 2.376C54.5705 3.38933 54.9251 4.70667 54.9251 6.328C54.9251 7.924 54.4691 9.50733 53.5571 11.078C52.6705 12.6233 51.5811 13.8773 50.2891 14.84C49.6558 15.3467 49.1745 15.6 48.8451 15.6C48.0851 15.6 47.7051 15.22 47.7051 14.46C47.7051 14.156 48.1358 13.6747 48.9971 13.016C49.8585 12.3573 50.6818 11.42 51.4671 10.204C52.2525 8.96267 52.6451 7.51867 52.6451 5.872C52.6451 5.188 52.4931 4.56733 52.1891 4.01C51.8851 3.42733 51.4038 3.136 50.7451 3.136C49.9851 3.136 49.1618 3.934 48.2751 5.53C47.4138 7.10067 46.6538 9.254 45.9951 11.99C45.3618 14.726 45.0451 17.538 45.0451 20.426C45.0451 23.2887 45.4251 24.72 46.1851 24.72C47.2491 24.72 48.2625 23.732 49.2251 21.756C49.6305 20.9453 50.0611 20.1347 50.5171 19.324C50.9731 18.488 51.5685 17.7913 52.3031 17.234C53.0631 16.6513 53.9371 16.36 54.9251 16.36C57.2051 16.36 58.3451 18.5133 58.3451 22.82C58.3451 23.58 58.7125 23.96 59.4471 23.96C60.2071 23.96 60.7771 23.8967 61.1571 23.77C61.5371 23.6433 61.7651 23.58 61.8411 23.58C62.6011 23.58 62.9811 23.96 62.9811 24.72ZM78.8666 23.884C78.8666 23.884 79.2719 23.7827 80.0826 23.58C80.8426 23.58 81.2226 23.96 81.2226 24.72C81.2226 25.2773 80.8426 25.6827 80.0826 25.936C79.6266 26.088 79.1706 26.164 78.7146 26.164C78.2839 26.164 77.8659 26.0627 77.4606 25.86C77.0553 25.6573 76.7386 25.3533 76.5106 24.948C76.1306 24.2893 75.8519 23.58 75.6746 22.82L75.5226 22.174C75.0919 22.9087 74.0406 23.77 72.3686 24.758C70.7219 25.746 68.9613 26.24 67.0866 26.24C66.0733 26.24 65.1866 25.86 64.4266 25.1C63.6666 24.34 63.2866 23.4533 63.2866 22.44C63.2866 19.9827 64.2999 17.8547 66.3266 16.056C68.3533 14.232 70.4053 13.32 72.4826 13.32C73.6226 13.32 74.5979 13.5353 75.4086 13.966C76.2446 14.3713 76.6626 14.7893 76.6626 15.22C76.6626 15.98 76.2826 16.36 75.5226 16.36C75.3706 16.36 75.0033 16.2333 74.4206 15.98C73.8379 15.7267 73.1919 15.6 72.4826 15.6C71.1146 15.6 69.6199 16.2713 67.9986 17.614C66.3773 18.9313 65.5666 20.54 65.5666 22.44C65.5666 22.82 65.7186 23.1747 66.0226 23.504C66.3519 23.808 66.7066 23.96 67.0866 23.96C68.5813 23.96 69.9746 23.5673 71.2666 22.782C72.5586 21.9713 73.3819 21.3127 73.7366 20.806C74.0913 20.274 74.3826 19.7927 74.6106 19.362C74.8386 18.9313 75.0033 18.6527 75.1046 18.526C75.2313 18.374 75.4846 18.298 75.8646 18.298C76.2446 18.298 76.5359 18.4373 76.7386 18.716C76.9413 18.9947 77.1313 19.438 77.3086 20.046C77.4859 20.6287 77.6633 21.2873 77.8406 22.022C78.0179 22.7567 78.1699 23.2507 78.2966 23.504C78.4486 23.7573 78.6386 23.884 78.8666 23.884ZM111.184 18.26C112.907 18.26 113.92 19.476 114.224 21.908C114.25 22.0347 114.275 22.2627 114.3 22.592C114.351 22.896 114.389 23.1367 114.414 23.314C114.44 23.4913 114.478 23.6307 114.528 23.732C114.528 23.8333 114.554 23.9347 114.604 24.036C114.68 24.2387 114.807 24.34 114.984 24.34C115.466 24.34 116.086 24.2133 116.846 23.96C117.606 23.7067 118.024 23.58 118.1 23.58C118.86 23.58 119.24 23.96 119.24 24.72C119.24 25.2773 118.86 25.6827 118.1 25.936C116.732 26.392 115.668 26.62 114.908 26.62C113.262 26.62 112.274 25.1507 111.944 22.212C111.792 21.0973 111.539 20.54 111.184 20.54C110.424 20.54 109.462 21.4267 108.296 23.2C107.866 23.8587 107.296 24.4667 106.586 25.024C105.877 25.5813 105.155 25.86 104.42 25.86C103.686 25.86 103.103 25.6067 102.672 25.1C102.242 24.5933 101.963 24.112 101.836 23.656C101.684 23.1493 101.444 22.0473 101.114 20.35C100.785 18.6527 100.557 17.7533 100.43 17.652C100.329 17.5507 100.24 17.5 100.164 17.5C99.8097 17.5 99.4931 17.728 99.2144 18.184C98.9611 18.6147 98.6697 19.2227 98.3404 20.008C98.0111 20.7933 97.6944 21.604 97.3904 22.44C97.1117 23.2507 96.8837 23.8587 96.7064 24.264C96.5291 24.644 96.2884 25.0873 95.9844 25.594C95.4271 26.5313 94.6671 27 93.7044 27C93.0457 27 92.4884 26.772 92.0324 26.316C91.5764 25.86 91.2217 25.2773 90.9684 24.568C90.5124 23.1493 90.2717 21.7053 90.2464 20.236C90.2464 18.7413 90.0944 17.6013 89.7904 16.816C89.5117 16.0053 89.1697 15.6 88.7644 15.6C87.4471 15.6 86.4591 16.4107 85.8004 18.032C85.4964 18.8173 85.1671 19.932 84.8124 21.376C84.3057 23.3267 83.1024 24.7073 81.2024 25.518C80.7971 25.746 80.3791 25.86 79.9484 25.86C79.1884 25.86 78.8084 25.48 78.8084 24.72C78.8084 24.2387 79.1884 23.846 79.9484 23.542C80.2524 23.4153 80.4171 23.352 80.4424 23.352C80.4931 23.3267 80.5944 23.276 80.7464 23.2C80.8984 23.124 80.9997 23.0733 81.0504 23.048C81.1011 22.9973 81.1897 22.934 81.3164 22.858C81.4684 22.7567 81.5697 22.668 81.6204 22.592C81.6964 22.4907 81.7851 22.3767 81.8864 22.25C82.0131 22.1233 82.1017 21.9967 82.1524 21.87C82.3551 21.49 82.5324 20.996 82.6844 20.388C82.8364 19.78 82.9757 19.2733 83.1024 18.868C83.2291 18.4627 83.4697 17.842 83.8244 17.006C84.1791 16.1447 84.5464 15.4987 84.9264 15.068C85.3064 14.6373 85.8257 14.2447 86.4844 13.89C87.1684 13.51 87.9917 13.32 88.9544 13.32C89.9424 13.32 90.7784 13.89 91.4624 15.03C92.1717 16.1447 92.5264 17.8547 92.5264 20.16C92.5264 20.9707 92.6151 21.9333 92.7924 23.048C92.9951 24.1627 93.2991 24.72 93.7044 24.72C93.9071 24.72 94.1224 24.454 94.3504 23.922C94.5784 23.3647 94.7684 22.896 94.9204 22.516C95.0724 22.1107 95.2497 21.6293 95.4524 21.072C96.2124 18.9187 96.9597 17.4113 97.6944 16.55C98.4291 15.6633 99.2524 15.22 100.164 15.22C101.228 15.22 101.988 15.7013 102.444 16.664C102.824 17.5 103.09 18.3233 103.242 19.134C103.749 22.098 104.116 23.58 104.344 23.58C105.104 23.58 106.067 22.6933 107.232 20.92C107.663 20.2613 108.233 19.6533 108.942 19.096C109.652 18.5387 110.399 18.26 111.184 18.26ZM135.124 23.884C135.124 23.884 135.53 23.7827 136.34 23.58C137.1 23.58 137.48 23.96 137.48 24.72C137.48 25.2773 137.1 25.6827 136.34 25.936C135.884 26.088 135.428 26.164 134.972 26.164C134.542 26.164 134.124 26.0627 133.718 25.86C133.313 25.6573 132.996 25.3533 132.768 24.948C132.388 24.2893 132.11 23.58 131.932 22.82L131.78 22.174C131.35 22.9087 130.298 23.77 128.626 24.758C126.98 25.746 125.219 26.24 123.344 26.24C122.331 26.24 121.444 25.86 120.684 25.1C119.924 24.34 119.544 23.4533 119.544 22.44C119.544 19.9827 120.558 17.8547 122.584 16.056C124.611 14.232 126.663 13.32 128.74 13.32C129.88 13.32 130.856 13.5353 131.666 13.966C132.502 14.3713 132.92 14.7893 132.92 15.22C132.92 15.98 132.54 16.36 131.78 16.36C131.628 16.36 131.261 16.2333 130.678 15.98C130.096 15.7267 129.45 15.6 128.74 15.6C127.372 15.6 125.878 16.2713 124.256 17.614C122.635 18.9313 121.824 20.54 121.824 22.44C121.824 22.82 121.976 23.1747 122.28 23.504C122.61 23.808 122.964 23.96 123.344 23.96C124.839 23.96 126.232 23.5673 127.524 22.782C128.816 21.9713 129.64 21.3127 129.994 20.806C130.349 20.274 130.64 19.7927 130.868 19.362C131.096 18.9313 131.261 18.6527 131.362 18.526C131.489 18.374 131.742 18.298 132.122 18.298C132.502 18.298 132.794 18.4373 132.996 18.716C133.199 18.9947 133.389 19.438 133.566 20.046C133.744 20.6287 133.921 21.2873 134.098 22.022C134.276 22.7567 134.428 23.2507 134.554 23.504C134.706 23.7573 134.896 23.884 135.124 23.884ZM142.286 6.67C141.83 6.03667 141.602 5.39067 141.602 4.732C141.602 4.07333 141.818 3.50333 142.248 3.022C142.704 2.54067 143.262 2.21133 143.92 2.034C144.604 1.85667 145.39 1.692 146.276 1.54C147.163 1.388 147.936 1.274 148.594 1.198C150.317 0.995332 151.229 0.893999 151.33 0.893999C151.457 0.868666 151.634 0.855999 151.862 0.855999C152.622 0.855999 153.002 1.236 153.002 1.996C153.002 2.19867 152.901 2.42667 152.698 2.68C152.496 2.93333 152.293 3.07267 152.09 3.098C151.888 3.12333 151.444 3.18667 150.76 3.288C150.102 3.364 149.418 3.45266 148.708 3.554C147.999 3.63 147.264 3.73133 146.504 3.858C144.756 4.162 143.882 4.45333 143.882 4.732C143.882 4.93467 144.338 5.59333 145.25 6.708C146.162 7.79733 147.226 9.07667 148.442 10.546C149.684 12.0153 150.57 13.1933 151.102 14.08C151.66 14.9413 151.938 15.9167 151.938 17.006C151.938 18.07 151.546 19.2733 150.76 20.616C150 21.9333 149.063 23.048 147.948 23.96C146.859 24.8467 145.732 25.5813 144.566 26.164C143.401 26.7213 142.324 27 141.336 27C140.374 27 139.538 26.6833 138.828 26.05C138.144 25.4167 137.802 24.5933 137.802 23.58C137.802 20.8693 138.664 18.6907 140.386 17.044C142.134 15.372 143.958 14.536 145.858 14.536C146.213 14.536 146.77 14.5993 147.53 14.726C148.29 14.8527 148.81 14.992 149.088 15.144C148.582 14.308 147.442 12.8513 145.668 10.774C143.895 8.67133 142.768 7.30333 142.286 6.67ZM149.544 17.728C149.139 17.5253 148.531 17.3227 147.72 17.12C146.91 16.9173 146.289 16.816 145.858 16.816C144.617 16.816 143.338 17.424 142.02 18.64C140.728 19.8307 140.082 21.4773 140.082 23.58C140.082 23.9347 140.234 24.2133 140.538 24.416C140.842 24.6187 141.248 24.72 141.754 24.72C142.261 24.72 143.021 24.454 144.034 23.922C145.073 23.39 146.15 22.5667 147.264 21.452C148.379 20.312 149.139 19.0707 149.544 17.728Z" fill="#90DDA9"/>
</svg>
